# xmcd
#
# Track frame offsets: 
#        150
#        15840
#        26750
#        45080
#        70182
#        81135
#        94205
#        117240
#        128747
#        143872
#        159037
#        167912
#
# Disc length: 2432 seconds
#
# Revision: 2
# Processed by: cddbd v1.5.2PL0 Copyright (c) Steve Scherf et al.
# Submitted via: ExactAudioCopyFreeDBPlugin 1.0
#
DISCID=89097e0c
DTITLE=Antonio Vivaldi - Die Vier Jahreszeiten
DYEAR=2000
DGENRE=Classical
TTITLE0=Der Frühling: Allegro
TTITLE1=Der Frühling: Largo e pianissimo sempre
TTITLE2=Der Frühling: Danza pastorale-allegro
TTITLE3=Der Sommer: Allegro non molto
TTITLE4=Der Sommer: Adagio
TTITLE5=Der Sommer: Tempo impetuoso d'estate
TTITLE6=Der Herbst: Allegro
TTITLE7=Der Herbst: Adagio
TTITLE8=Der Herbst: La caccia
TTITLE9=Der Winter: Allegro non molto
TTITLE10=Der Winter: Largo
TTITLE11=Der Winter: Allegro
EXTD=
EXTT0=
EXTT1=
EXTT2=
EXTT3=
EXTT4=
EXTT5=
EXTT6=
EXTT7=
EXTT8=
EXTT9=
EXTT10=
EXTT11=
PLAYORDER=
